<?xml version="1.0" standalone="no"?>
<!DOCTYPE svg PUBLIC "-//W3C//DTD SVG 20010904//EN"
 "http://www.w3.org/TR/2001/REC-SVG-20010904/DTD/svg10.dtd">
<svg version="1.0" xmlns="http://www.w3.org/2000/svg"
 width="644.000000pt" height="599.000000pt" viewBox="0 0 644.000000 599.000000"
 preserveAspectRatio="xMidYMid meet">
<metadata>
Created by potrace 1.15, written by Peter Selinger 2001-2017
</metadata>
<g transform="translate(0.000000,599.000000) scale(0.100000,-0.100000)"
fill="#000000" stroke="none">
<path d="M1810 5924 c-394 -27 -744 -159 -1065 -402 -96 -73 -274 -259 -347
-362 -162 -229 -271 -504 -312 -785 -85 -580 83 -1195 448 -1645 33 -41 118
-133 189 -205 l129 -130 2 -100 c5 -146 48 -255 144 -357 93 -99 241 -168 361
-168 l61 0 0 -47 c1 -230 176 -447 407 -507 34 -9 84 -16 112 -16 l51 0 0 -61
c0 -75 38 -192 86 -264 91 -137 240 -226 405 -241 l68 -7 7 -66 c20 -195 129
-355 297 -439 88 -43 139 -55 242 -56 111 0 205 27 290 82 34 23 164 144 301
283 258 260 283 294 320 427 l17 60 96 -5 c174 -9 305 40 421 157 96 96 159
244 160 373 l0 37 61 0 c114 0 269 70 356 161 79 83 139 224 145 338 l3 61 35
0 c184 1 389 128 469 291 36 73 61 158 61 207 0 27 12 47 56 95 194 214 343
486 419 764 103 375 94 756 -27 1118 -172 517 -565 940 -1046 1125 -589 227
-1324 145 -1869 -209 l-92 -60 -83 75 c-215 194 -521 356 -803 424 -168 41
-420 64 -575 54z m425 -304 c301 -62 579 -203 788 -399 l37 -35 -637 -638
-638 -638 80 -75 c109 -102 187 -158 289 -206 141 -66 218 -82 391 -83 165 0
229 11 364 65 159 64 202 98 571 465 l345 344 852 -853 c923 -924 877 -873
877 -987 -2 -190 -200 -315 -374 -234 -47 21 -147 117 -665 634 -417 416 -619
611 -638 616 -96 23 -188 -59 -171 -154 6 -33 82 -113 629 -662 588 -590 624
-628 640 -679 67 -205 -121 -397 -331 -336 -59 17 -61 19 -679 635 -341 340
-630 623 -642 629 -71 36 -177 -21 -183 -99 -7 -81 -35 -49 618 -705 417 -417
625 -633 637 -660 11 -22 21 -69 23 -105 3 -58 0 -72 -30 -130 -57 -110 -166
-164 -282 -140 -59 12 -157 76 -206 135 -47 56 -105 105 -162 135 -63 34 -191
70 -248 70 l-37 0 -6 73 c-13 168 -101 312 -249 408 -75 48 -141 70 -237 78
l-76 6 -6 76 c-8 95 -30 162 -78 237 -95 146 -243 237 -407 249 l-72 6 -7 65
c-15 140 -65 249 -157 341 -180 179 -460 211 -668 74 -30 -20 -156 -137 -280
-260 l-225 -224 -120 123 c-149 153 -235 273 -324 453 -148 297 -211 585 -198
910 17 410 166 766 432 1030 261 258 591 418 962 465 113 14 384 3 498 -20z
m2630 -160 c419 -90 743 -311 975 -665 108 -165 195 -386 237 -600 27 -139 24
-454 -6 -595 -29 -139 -80 -287 -137 -404 -44 -92 -136 -239 -175 -282 -19
-20 -22 -17 -911 874 -491 492 -911 907 -932 923 -42 31 -107 39 -149 18 -12
-6 -197 -185 -412 -398 -421 -417 -445 -437 -600 -488 -69 -23 -97 -27 -205
-27 -111 0 -134 3 -205 28 -44 15 -100 39 -124 53 l-44 25 539 540 c297 297
582 574 635 617 259 210 553 339 904 396 137 22 478 14 610 -15z m-3008 -2515
c108 -32 184 -135 185 -250 0 -108 -17 -133 -265 -381 -139 -139 -238 -230
-265 -244 -174 -86 -382 41 -382 234 0 105 21 134 277 389 188 187 237 231
278 247 61 23 106 25 172 5z m608 -583 c123 -63 180 -219 124 -342 -26 -59
-455 -492 -514 -519 -62 -30 -117 -35 -179 -17 -121 35 -196 133 -196 255 1
107 17 131 243 359 223 225 261 258 315 279 51 19 157 11 207 -15z m555 -563
c55 -25 105 -71 133 -124 30 -57 30 -174 0 -230 -31 -58 -479 -500 -525 -520
-51 -21 -153 -19 -204 4 -125 57 -187 187 -149 318 16 56 27 68 253 295 143
144 252 246 276 258 56 27 155 27 216 -1z m576 -571 c25 -11 62 -41 84 -66 72
-81 86 -190 38 -287 -25 -50 -437 -467 -495 -502 -167 -98 -393 35 -393 232 0
100 17 123 254 363 215 217 273 266 339 283 46 11 122 1 173 -23z"/>
</g>
</svg>
